<?xml version="1.0" encoding="UTF-8" standalone="no"?>
<!-- Created with Inkscape (http://www.inkscape.org/) -->

<svg
   xmlns:dc="http://purl.org/dc/elements/1.1/"
   xmlns:cc="http://creativecommons.org/ns#"
   xmlns:rdf="http://www.w3.org/1999/02/22-rdf-syntax-ns#"
   xmlns:svg="http://www.w3.org/2000/svg"
   xmlns="http://www.w3.org/2000/svg"
   xmlns:sodipodi="http://sodipodi.sourceforge.net/DTD/sodipodi-0.dtd"
   xmlns:inkscape="http://www.inkscape.org/namespaces/inkscape"
   width="447.61884"
   height="472.55725"
   id="svg2"
   version="1.1"
   inkscape:version="0.48.4 r9939"
   sodipodi:docname="New document 1">
  <defs
     id="defs4" />
  <sodipodi:namedview
     id="base"
     pagecolor="#ffffff"
     bordercolor="#666666"
     borderopacity="1.0"
     inkscape:pageopacity="0.0"
     inkscape:pageshadow="2"
     inkscape:zoom="0.35"
     inkscape:cx="231.29802"
     inkscape:cy="118.89694"
     inkscape:document-units="px"
     inkscape:current-layer="layer1"
     showgrid="false"
     fit-margin-top="0"
     fit-margin-left="0"
     fit-margin-right="0"
     fit-margin-bottom="0"
     inkscape:window-width="769"
     inkscape:window-height="651"
     inkscape:window-x="83"
     inkscape:window-y="328"
     inkscape:window-maximized="0" />
  <metadata
     id="metadata7">
    <rdf:RDF>
      <cc:Work
         rdf:about="">
        <dc:format>image/svg+xml</dc:format>
        <dc:type
           rdf:resource="http://purl.org/dc/dcmitype/StillImage" />
        <dc:title></dc:title>
      </cc:Work>
    </rdf:RDF>
  </metadata>
  <g
     inkscape:label="Layer 1"
     inkscape:groupmode="layer"
     id="layer1"
     transform="translate(-143.70198,-178.70188)">
    <path
       inkscape:connector-curvature="0"
       id="path2998"
       d="m 336.47974,641.98448 c -14.88775,-14.88776 -20.79041,-37.4173 -19.99289,-76.30978 0.87811,-42.8229 2.02612,-39.58891 -13.30727,-37.48725 -16.41455,2.24989 -26.64221,-3.55524 -21.38215,-12.13627 2.58767,-4.22139 14.41517,-7.25801 53.13219,-13.64125 27.39194,-4.51608 60.73359,-8.64223 74.09254,-9.16921 l 24.28899,-0.95817 0.94409,8.17704 c 1.07202,9.28538 -0.67885,9.82888 -42.52081,13.19873 -12.84799,1.03477 -24.60899,3.4798 -26.13557,5.43342 -1.66449,2.13015 -1.69549,13.88286 -0.0774,29.35911 3.01303,28.81863 1.49647,43.12227 -5.15761,48.64467 -8.32202,6.90667 -13.57848,-1.76052 -13.61564,-22.45032 -0.0411,-22.89159 -2.91631,-41.37497 -6.43609,-41.37497 -1.45138,0 -2.63888,15.68429 -2.63888,34.85398 0,47.88841 8.24593,67.85187 24.44528,59.18224 7.97364,-4.26736 14.50834,-29.40326 16.01726,-61.6108 1.41184,-30.13515 4.17808,-35.73625 12.89319,-26.10615 4.88585,5.39881 5.84072,11.0337 5.80022,34.22815 -0.0789,45.20316 -14.04428,72.81343 -38.86663,76.84155 -9.6736,1.5698 -12.29799,0.51007 -21.4828,-8.67472 z m -97.23584,-82.6653 c -39.01517,-16.55429 -62.77917,-39.85063 -80.77066,-79.18113 -12.93943,-28.28639 -16.0891,-47.72894 -14.31854,-88.38681 2.62793,-60.34636 16.67919,-97.71951 49.53521,-131.75243 29.79301,-30.8602 80.24588,-54.59885 151.57362,-71.31712 37.76387,-8.85135 114.89261,-12.91926 144.19762,-7.60525 41.00059,7.43482 85.14928,40.76352 95.17696,71.85088 8.69048,26.94188 8.79675,34.70973 0.94946,69.40358 -4.14586,18.32932 -8.45944,39.47418 -9.58575,46.98859 -2.96474,19.77998 -16.32679,63.06745 -24.36702,78.93925 -9.17441,18.1106 -67.93357,82.24154 -85.93916,93.7957 -7.83326,5.02658 -19.50846,11.33959 -25.9449,14.0289 -22.48235,9.39374 -27.91629,-2.54136 -7.19862,-15.81105 25.07177,-16.05849 51.65062,-39.11105 67.09954,-58.19732 30.73172,-37.96718 33.81612,-43.55945 42.20602,-76.52254 23.05555,-90.58314 26.82408,-128.0064 15.14829,-150.42938 -8.99616,-17.27685 -34.09789,-38.96148 -54.76984,-47.314 -15.9201,-6.43255 -21.38728,-6.95 -68.05063,-6.44079 -56.4534,0.61605 -86.99798,5.15965 -130.72911,19.44638 -94.18793,30.77069 -127.86873,70.86677 -134.56737,160.19879 -5.48533,73.1515 22.26933,127.75889 78.60462,154.65479 28.36339,13.54139 35.29721,19.78606 30.48902,27.45871 -4.97505,7.93892 -12.88712,7.16122 -38.73876,-3.80775 z m 24.17054,-133.14806 c -6.61002,-3.7439 -16.17381,-12.72419 -21.25287,-19.95619 -8.44813,-12.02917 -9.21267,-15.15561 -8.97653,-36.70789 0.44455,-40.57342 22.25098,-77.91092 54.39212,-93.1315 17.37238,-8.22676 38.36583,-9.51143 44.02381,-2.69398 5.73588,6.91131 -1.52393,13.64891 -14.79335,13.72924 -33.21545,0.2011 -60.72768,30.76052 -65.54111,72.80032 -2.31908,20.2544 3.76007,34.33968 19.30193,44.72232 14.19905,9.48559 29.31099,8.92599 46.07621,-1.70619 23.9579,-15.19365 36.46759,-34.22334 30.19832,-45.93757 -3.81395,-7.12644 -9.16975,-8.21614 -9.16975,-1.8657 0,6.7667 -14.09278,21.8166 -24.44414,26.10428 -8.35948,3.4626 -10.05222,3.22225 -15.47125,-2.19677 -9.34503,-9.34504 -10.5725,-27.76308 -2.85803,-42.88467 3.55483,-6.96806 7.46026,-12.82 8.67873,-13.00431 11.84494,-1.79172 39.74426,-1.26265 43.86684,0.83188 7.99018,4.0595 20.5891,27.69887 20.5891,38.63134 0,14.1144 -6.50658,24.678 -26.41521,42.88579 -30.05256,27.48511 -54.43958,33.84019 -78.20482,20.3796 z m 123.99262,-21.47763 c -7.22862,-6.21779 -8.51485,-10.01138 -10.03672,-29.60221 -1.93043,-24.85027 1.2416,-68.04963 5.89554,-80.29042 2.20414,-5.79734 4.79791,-7.62173 9.82151,-6.90823 5.92723,0.84185 6.73023,2.56922 6.09634,13.11406 -0.40153,6.67947 -1.08466,28.14873 -1.51807,47.70947 -0.66242,29.89709 0.0213,36.37437 4.28979,40.64382 7.63921,7.64081 15.8214,3.23918 13.69962,-7.36974 -2.4885,-12.44254 2.72406,-31.61991 10.25228,-37.71878 3.60716,-2.92227 11.01822,-5.31321 16.469,-5.31321 11.43381,0 12.63939,-3.26912 15.74538,-42.69652 1.78393,-22.64536 1.67345,-23.11593 -8.02023,-34.1564 -10.53976,-12.00413 -15.60304,-13.15864 -33.79947,-7.70686 -12.54914,3.75981 -22.05139,-0.10132 -19.11044,-7.76533 4.08779,-10.65261 39.52664,-18.01659 52.72109,-10.95513 8.90335,4.76492 26.69279,31.02759 28.86684,42.61629 2.14927,11.4566 -4.84487,61.49689 -12.16287,87.02034 -10.26589,35.80511 -56.59028,58.83517 -79.20959,39.37885 z"
       style="fill:#000000" />
  </g>
</svg>
